<?xml version="1.0" standalone="no"?>
<!DOCTYPE svg PUBLIC "-//W3C//DTD SVG 20010904//EN"
 "http://www.w3.org/TR/2001/REC-SVG-20010904/DTD/svg10.dtd">
<svg version="1.0" xmlns="http://www.w3.org/2000/svg"
 width="1024.000000pt" height="1024.000000pt" viewBox="0 0 1024.000000 1024.000000"
 preserveAspectRatio="xMidYMid meet">
<metadata>
Created by potrace 1.14, written by Peter Selinger 2001-2017
</metadata>
<g transform="translate(0.000000,1024.000000) scale(0.100000,-0.100000)"
fill="#000000" stroke="none">
<path d="M4849 10236 c-2 -2 -51 -6 -108 -10 -58 -4 -139 -11 -180 -17 -42 -5
-96 -12 -121 -15 -25 -3 -70 -9 -100 -14 -30 -5 -73 -12 -95 -16 -22 -3 -94
-17 -160 -31 -147 -30 -136 -27 -215 -48 -36 -9 -72 -18 -80 -20 -8 -2 -53
-15 -100 -29 -47 -15 -93 -28 -103 -31 -9 -2 -52 -16 -93 -30 l-76 -26 -57 22
c-31 13 -67 29 -81 36 -63 32 -98 3 -107 -89 -5 -57 -9 -69 -27 -74 -50 -16
-353 -161 -453 -217 -51 -28 -83 -41 -83 -33 0 22 -40 66 -60 66 -11 0 -48
-25 -82 -56 -157 -140 -320 -166 -525 -83 -26 11 -36 11 -57 0 -34 -19 -36
-37 -15 -142 11 -51 21 -102 23 -114 2 -11 7 -36 11 -56 6 -30 3 -40 -16 -58
-19 -17 -35 -21 -93 -21 -232 2 -429 121 -551 334 -65 113 -76 126 -112 126
-23 0 -41 -13 -87 -62 -48 -52 -174 -187 -326 -348 -377 -399 -370 -391 -370
-413 0 -10 10 -28 23 -41 20 -20 29 -22 79 -16 214 23 438 -59 581 -214 42
-45 107 -136 107 -149 0 -5 -37 -56 -83 -115 -84 -108 -195 -268 -276 -397
-71 -114 -61 -97 -145 -245 -99 -172 -261 -531 -332 -732 -14 -40 -28 -80 -31
-88 -3 -8 -7 -19 -9 -25 -2 -5 -17 -55 -34 -110 -27 -85 -63 -211 -75 -265
-31 -133 -64 -281 -68 -305 -30 -178 -45 -283 -53 -365 -2 -30 -7 -64 -9 -75
-19 -91 -27 -669 -12 -875 9 -119 23 -256 37 -345 5 -33 12 -78 15 -100 3 -23
8 -52 10 -65 3 -14 12 -65 21 -115 28 -164 90 -397 174 -655 137 -424 412
-956 694 -1345 61 -84 225 -296 240 -310 6 -6 40 -44 76 -85 176 -205 454
-468 680 -645 780 -611 1703 -979 2690 -1073 102 -10 856 -9 954 1 91 9 359
44 396 52 14 3 39 8 55 10 133 23 411 91 575 141 794 246 1509 674 2090 1254
195 194 315 330 458 515 34 44 69 89 78 100 46 58 253 378 320 495 259 453
457 973 559 1468 31 150 61 329 70 412 4 36 9 73 10 83 14 70 20 245 20 572 0
337 -4 448 -20 575 -2 19 -7 58 -10 85 -42 370 -162 834 -320 1235 -67 170
-250 549 -324 668 -28 46 -51 86 -51 88 0 15 -294 443 -319 464 -3 3 -17 21
-30 40 -114 163 -499 564 -721 751 -526 443 -1090 759 -1730 968 -219 71 -532
149 -714 177 -21 3 -48 8 -60 10 -11 2 -41 7 -66 10 -25 3 -72 9 -105 14 -33
5 -96 12 -140 16 -44 3 -91 8 -105 11 -32 5 -665 14 -671 9z"/>
</g>
</svg>
